<?xml version='1.0' encoding='utf-8'?>
<svg xmlns="http://www.w3.org/2000/svg" id="ARTWORK" width="2000" height="2000" viewBox="0 0 2000 2000" shape-rendering="crispEdges">
  <!-- WIZARD CLAWD - purple robe, hat, magic sparkles -->
  <!-- Wizard hat - purple with stars -->
  <rect x="785" y="656" width="43" height="43" fill="#663399" />
  <rect x="828" y="656" width="43" height="43" fill="#9966cc" />
  <rect x="871" y="656" width="43" height="43" fill="#663399" />
  <rect x="914" y="656" width="43" height="43" fill="#ffd700" />
  <rect x="999" y="656" width="43" height="43" fill="#663399" />
  <rect x="1043" y="656" width="43" height="43" fill="#9966cc" />
  <rect x="1128" y="656" width="43" height="43" fill="#663399" />
  <rect x="1171" y="656" width="43" height="43" fill="#ffd700" />
  <rect x="785" y="699" width="43" height="43" fill="#9966cc" />
  <rect x="914" y="699" width="43" height="43" fill="#9966cc" />
  <rect x="999" y="699" width="43" height="43" fill="#9966cc" />
  <rect x="1085" y="699" width="43" height="43" fill="#9966cc" />
  <rect x="1171" y="699" width="43" height="43" fill="#9966cc" />
  <rect x="785" y="743" width="43" height="43" fill="#663399" />
  <rect x="828" y="743" width="43" height="43" fill="#4b0082" />
  <rect x="871" y="743" width="43" height="43" fill="#663399" />
  <rect x="914" y="743" width="43" height="43" fill="#4b0082" />
  <rect x="999" y="743" width="43" height="43" fill="#663399" />
  <rect x="1171" y="743" width="43" height="43" fill="#663399" />
  <!-- Purple robe body -->
  <rect x="828" y="914" width="43" height="43" fill="#4b0082" />
  <rect x="1128" y="914" width="43" height="43" fill="#4b0082" />
  <rect x="571" y="956" width="43" height="43" fill="#663399" />
  <rect x="785" y="956" width="43" height="43" fill="#4b0082" />
  <rect x="871" y="956" width="43" height="43" fill="#2f2f38" />
  <rect x="1085" y="956" width="43" height="43" fill="#2f2f38" />
  <rect x="1171" y="956" width="43" height="43" fill="#4b0082" />
  <rect x="485" y="999" width="43" height="43" fill="#663399" />
  <rect x="528" y="1043" width="43" height="43" fill="#663399" />
  <rect x="443" y="1085" width="43" height="43" fill="#663399" />
  <rect x="528" y="1085" width="43" height="43" fill="#663399" />
  <rect x="528" y="1128" width="43" height="43" fill="#663399" />
  <rect x="571" y="1128" width="43" height="43" fill="#ffb052" />
  <rect x="614" y="1128" width="43" height="43" fill="#663399" />
  <rect x="656" y="1128" width="43" height="43" fill="#4b0082" />
  <rect x="1299" y="1128" width="43" height="43" fill="#4b0082" />
  <rect x="1343" y="1128" width="43" height="43" fill="#ffb052" />
  <rect x="485" y="1171" width="43" height="43" fill="#663399" />
  <rect x="571" y="1171" width="43" height="43" fill="#4b0082" />
  <rect x="614" y="1171" width="43" height="43" fill="#4b0082" />
  <rect x="656" y="1171" width="43" height="43" fill="#9966cc" />
  <rect x="1299" y="1171" width="43" height="43" fill="#9966cc" />
  <rect x="1343" y="1171" width="43" height="43" fill="#4b0082" />
  <rect x="571" y="1214" width="43" height="43" fill="#663399" />
  <rect x="699" y="1214" width="43" height="43" fill="#4b0082" />
  <rect x="1256" y="1214" width="43" height="43" fill="#4b0082" />
  <rect x="699" y="1256" width="43" height="43" fill="#9966cc" />
  <rect x="785" y="1256" width="43" height="43" fill="#9966cc" />
  <rect x="871" y="1256" width="43" height="43" fill="#4b0082" />
  <rect x="914" y="1256" width="43" height="43" fill="#9966cc" />
  <rect x="956" y="1256" width="43" height="43" fill="#9966cc" />
  <rect x="999" y="1256" width="43" height="43" fill="#9966cc" />
  <rect x="1043" y="1256" width="43" height="43" fill="#9966cc" />
  <rect x="1085" y="1256" width="43" height="43" fill="#4b0082" />
  <rect x="1171" y="1256" width="43" height="43" fill="#9966cc" />
  <rect x="1256" y="1256" width="43" height="43" fill="#9966cc" />
  <rect x="656" y="1299" width="43" height="43" fill="#9966cc" />
  <rect x="699" y="1299" width="43" height="43" fill="#9966cc" />
  <rect x="743" y="1299" width="43" height="43" fill="#9966cc" />
  <rect x="785" y="1299" width="43" height="43" fill="#9966cc" />
  <rect x="828" y="1299" width="43" height="43" fill="#9966cc" />
  <rect x="871" y="1299" width="43" height="43" fill="#9966cc" />
  <rect x="914" y="1299" width="43" height="43" fill="#9966cc" />
  <rect x="956" y="1299" width="43" height="43" fill="#9966cc" />
  <rect x="999" y="1299" width="43" height="43" fill="#9966cc" />
  <rect x="1043" y="1299" width="43" height="43" fill="#9966cc" />
  <rect x="1085" y="1299" width="43" height="43" fill="#9966cc" />
  <rect x="1128" y="1299" width="43" height="43" fill="#9966cc" />
  <rect x="1171" y="1299" width="43" height="43" fill="#9966cc" />
  <rect x="1214" y="1299" width="43" height="43" fill="#9966cc" />
  <rect x="1256" y="1299" width="43" height="43" fill="#9966cc" />
  <rect x="1299" y="1299" width="43" height="43" fill="#9966cc" />
  <rect x="1385" y="956" width="43" height="43" fill="#663399" />
  <rect x="1385" y="1128" width="43" height="43" fill="#ffb052" />
  <rect x="1385" y="1171" width="43" height="43" fill="#4b0082" />
  <rect x="1385" y="1214" width="43" height="43" fill="#663399" />
  <rect x="1428" y="1043" width="43" height="43" fill="#663399" />
  <rect x="1428" y="1085" width="43" height="43" fill="#663399" />
  <rect x="1428" y="1128" width="43" height="43" fill="#663399" />
  <rect x="1471" y="999" width="43" height="43" fill="#663399" />
  <rect x="1471" y="1171" width="43" height="43" fill="#663399" />
  <rect x="1514" y="1085" width="43" height="43" fill="#663399" />
  <rect x="699" y="828" width="43" height="43" fill="#4b0082" />
  <rect x="743" y="828" width="43" height="43" fill="#4b0082" />
  <rect x="785" y="828" width="43" height="43" fill="#4b0082" />
  <rect x="828" y="828" width="43" height="43" fill="#4b0082" />
  <rect x="871" y="828" width="43" height="43" fill="#4b0082" />
  <rect x="914" y="828" width="43" height="43" fill="#4b0082" />
  <rect x="956" y="828" width="43" height="43" fill="#4b0082" />
  <rect x="999" y="828" width="43" height="43" fill="#4b0082" />
  <rect x="1043" y="828" width="43" height="43" fill="#4b0082" />
  <rect x="699" y="871" width="43" height="43" fill="#4b0082" />
  <rect x="743" y="871" width="43" height="43" fill="#4b0082" />
  <rect x="785" y="871" width="43" height="43" fill="#4b0082" />
  <rect x="828" y="871" width="43" height="43" fill="#4b0082" />
  <rect x="871" y="871" width="43" height="43" fill="#4b0082" />
  <rect x="914" y="871" width="43" height="43" fill="#4b0082" />
  <rect x="956" y="871" width="43" height="43" fill="#4b0082" />
  <rect x="999" y="871" width="43" height="43" fill="#4b0082" />
  <rect x="1043" y="871" width="43" height="43" fill="#4b0082" />
  <rect x="699" y="914" width="43" height="43" fill="#4b0082" />
  <rect x="743" y="914" width="43" height="43" fill="#4b0082" />
  <rect x="785" y="914" width="43" height="43" fill="#4b0082" />
  <rect x="871" y="914" width="43" height="43" fill="#4b0082" />
  <rect x="914" y="914" width="43" height="43" fill="#4b0082" />
  <rect x="956" y="914" width="43" height="43" fill="#4b0082" />
  <rect x="999" y="914" width="43" height="43" fill="#4b0082" />
  <rect x="1043" y="914" width="43" height="43" fill="#4b0082" />
  <rect x="699" y="956" width="43" height="43" fill="#4b0082" />
  <rect x="743" y="956" width="43" height="43" fill="#4b0082" />
  <rect x="828" y="956" width="43" height="43" fill="#4b0082" />
  <rect x="914" y="956" width="43" height="43" fill="#4b0082" />
  <rect x="956" y="956" width="43" height="43" fill="#4b0082" />
  <rect x="999" y="956" width="43" height="43" fill="#4b0082" />
  <rect x="1043" y="956" width="43" height="43" fill="#4b0082" />
  <rect x="656" y="999" width="43" height="43" fill="#663399" />
  <rect x="699" y="999" width="43" height="43" fill="#4b0082" />
  <rect x="743" y="999" width="43" height="43" fill="#4b0082" />
  <rect x="785" y="999" width="43" height="43" fill="#4b0082" />
  <rect x="828" y="999" width="43" height="43" fill="#2f2f38" />
  <rect x="871" y="999" width="43" height="43" fill="#4b0082" />
  <rect x="914" y="999" width="43" height="43" fill="#2f2f38" />
  <rect x="956" y="999" width="43" height="43" fill="#4b0082" />
  <rect x="999" y="999" width="43" height="43" fill="#4b0082" />
  <rect x="1043" y="999" width="43" height="43" fill="#2f2f38" />
  <rect x="571" y="1043" width="43" height="43" fill="#663399" />
  <rect x="614" y="1043" width="43" height="43" fill="#663399" />
  <rect x="699" y="1043" width="43" height="43" fill="#4b0082" />
  <rect x="743" y="1043" width="43" height="43" fill="#4b0082" />
  <rect x="785" y="1043" width="43" height="43" fill="#4b0082" />
  <rect x="828" y="1043" width="43" height="43" fill="#4b0082" />
  <rect x="871" y="1043" width="43" height="43" fill="#4b0082" />
  <rect x="914" y="1043" width="43" height="43" fill="#4b0082" />
  <rect x="956" y="1043" width="43" height="43" fill="#fff" />
  <rect x="999" y="1043" width="43" height="43" fill="#fff" />
  <rect x="1043" y="1043" width="43" height="43" fill="#4b0082" />
  <rect x="571" y="1085" width="43" height="43" fill="#4b0082" />
  <rect x="614" y="1085" width="43" height="43" fill="#ffb052" />
  <rect x="656" y="1085" width="43" height="43" fill="#4b0082" />
  <rect x="699" y="1085" width="43" height="43" fill="#663399" />
  <rect x="743" y="1085" width="43" height="43" fill="#4b0082" />
  <rect x="785" y="1085" width="43" height="43" fill="#4b0082" />
  <rect x="828" y="1085" width="43" height="43" fill="#4b0082" />
  <rect x="871" y="1085" width="43" height="43" fill="#4b0082" />
  <rect x="914" y="1085" width="43" height="43" fill="#4b0082" />
  <rect x="956" y="1085" width="43" height="43" fill="#4b0082" />
  <rect x="999" y="1085" width="43" height="43" fill="#4b0082" />
  <rect x="1043" y="1085" width="43" height="43" fill="#4b0082" />
  <rect x="699" y="1128" width="43" height="43" fill="#4b0082" />
  <rect x="743" y="1128" width="43" height="43" fill="#4b0082" />
  <rect x="785" y="1128" width="43" height="43" fill="#4b0082" />
  <rect x="828" y="1128" width="43" height="43" fill="#4b0082" />
  <rect x="871" y="1128" width="43" height="43" fill="#4b0082" />
  <rect x="914" y="1128" width="43" height="43" fill="#4b0082" />
  <rect x="956" y="1128" width="43" height="43" fill="#4b0082" />
  <rect x="999" y="1128" width="43" height="43" fill="#4b0082" />
  <rect x="1043" y="1128" width="43" height="43" fill="#4b0082" />
  <rect x="699" y="1171" width="43" height="43" fill="#4b0082" />
  <rect x="743" y="1171" width="43" height="43" fill="#4b0082" />
  <rect x="785" y="1171" width="43" height="43" fill="#4b0082" />
  <rect x="828" y="1171" width="43" height="43" fill="#4b0082" />
  <rect x="871" y="1171" width="43" height="43" fill="#4b0082" />
  <rect x="914" y="1171" width="43" height="43" fill="#4b0082" />
  <rect x="956" y="1171" width="43" height="43" fill="#4b0082" />
  <rect x="999" y="1171" width="43" height="43" fill="#4b0082" />
  <rect x="1043" y="1171" width="43" height="43" fill="#4b0082" />
  <rect x="828" y="1214" width="43" height="43" fill="#4b0082" />
  <rect x="743" y="1256" width="43" height="43" fill="#4b0082" />
  <rect x="828" y="1256" width="43" height="43" fill="#4b0082" />
  <rect x="1085" y="828" width="43" height="43" fill="#4b0082" />
  <rect x="1085" y="871" width="43" height="43" fill="#4b0082" />
  <rect x="1085" y="914" width="43" height="43" fill="#4b0082" />
  <rect x="1085" y="999" width="43" height="43" fill="#4b0082" />
  <rect x="1085" y="1043" width="43" height="43" fill="#4b0082" />
  <rect x="1085" y="1085" width="43" height="43" fill="#4b0082" />
  <rect x="1085" y="1128" width="43" height="43" fill="#4b0082" />
  <rect x="1085" y="1171" width="43" height="43" fill="#4b0082" />
  <rect x="1128" y="828" width="43" height="43" fill="#4b0082" />
  <rect x="1128" y="871" width="43" height="43" fill="#4b0082" />
  <rect x="1128" y="956" width="43" height="43" fill="#4b0082" />
  <rect x="1128" y="999" width="43" height="43" fill="#2f2f38" />
  <rect x="1128" y="1043" width="43" height="43" fill="#4b0082" />
  <rect x="1128" y="1085" width="43" height="43" fill="#4b0082" />
  <rect x="1128" y="1128" width="43" height="43" fill="#4b0082" />
  <rect x="1128" y="1171" width="43" height="43" fill="#4b0082" />
  <rect x="1128" y="1214" width="43" height="43" fill="#4b0082" />
  <rect x="1128" y="1256" width="43" height="43" fill="#9966cc" />
  <rect x="1171" y="828" width="43" height="43" fill="#4b0082" />
  <rect x="1171" y="871" width="43" height="43" fill="#4b0082" />
  <rect x="1171" y="914" width="43" height="43" fill="#4b0082" />
  <rect x="1171" y="999" width="43" height="43" fill="#4b0082" />
  <rect x="1171" y="1043" width="43" height="43" fill="#4b0082" />
  <rect x="1171" y="1085" width="43" height="43" fill="#4b0082" />
  <rect x="1171" y="1128" width="43" height="43" fill="#4b0082" />
  <rect x="1171" y="1171" width="43" height="43" fill="#4b0082" />
  <rect x="1214" y="828" width="43" height="43" fill="#4b0082" />
  <rect x="1214" y="871" width="43" height="43" fill="#4b0082" />
  <rect x="1214" y="914" width="43" height="43" fill="#4b0082" />
  <rect x="1214" y="956" width="43" height="43" fill="#4b0082" />
  <rect x="1214" y="999" width="43" height="43" fill="#4b0082" />
  <rect x="1214" y="1043" width="43" height="43" fill="#4b0082" />
  <rect x="1214" y="1085" width="43" height="43" fill="#4b0082" />
  <rect x="1214" y="1128" width="43" height="43" fill="#4b0082" />
  <rect x="1214" y="1171" width="43" height="43" fill="#4b0082" />
  <rect x="1214" y="1256" width="43" height="43" fill="#4b0082" />
  <rect x="1256" y="828" width="43" height="43" fill="#4b0082" />
  <rect x="1256" y="871" width="43" height="43" fill="#4b0082" />
  <rect x="1256" y="914" width="43" height="43" fill="#4b0082" />
  <rect x="1256" y="956" width="43" height="43" fill="#4b0082" />
  <rect x="1256" y="999" width="43" height="43" fill="#4b0082" />
  <rect x="1256" y="1043" width="43" height="43" fill="#4b0082" />
  <rect x="1256" y="1085" width="43" height="43" fill="#663399" />
  <rect x="1299" y="999" width="43" height="43" fill="#663399" />
  <rect x="1299" y="1085" width="43" height="43" fill="#4b0082" />
  <rect x="1343" y="1043" width="43" height="43" fill="#663399" />
  <rect x="1343" y="1085" width="43" height="43" fill="#ffb052" />
  <rect x="1385" y="1043" width="43" height="43" fill="#663399" />
  <rect x="1385" y="1085" width="43" height="43" fill="#4b0082" />
  <rect x="1256" y="1128" width="43" height="43" fill="#4b0082" />
  <rect x="1256" y="1171" width="43" height="43" fill="#4b0082" />
  <!-- Magic sparkles around -->
  <rect x="200" y="600" width="40" height="40" fill="#ffd700" />
  <rect x="300" y="550" width="30" height="30" fill="#ffd700" />
  <rect x="1700" y="650" width="50" height="50" fill="#ffd700" />
  <rect x="1600" y="550" width="40" height="40" fill="#ffd700" />
  <rect x="1800" y="800" width="30" height="30" fill="#ffd700" />
  <!-- Wand -->
  <rect x="1400" y="1400" width="200" height="20" fill="#8b4513" />
  <rect x="1600" y="1390" width="30" height="40" fill="#ffd700" />
  <rect x="1580" y="1380" width="20" height="20" fill="#ffd700" />
</svg>